<mxfile host="app.diagrams.net" agent="Mozilla/5.0 (Windows NT 10.0; Win64; x64) AppleWebKit/537.36 (KHTML, like Gecko) Chrome/126.0.0.0 Safari/537.36" version="24.7.6">
  <diagram name="第 1 页" id="yLjYRH8mUdp2zrqMtvx4">
    <mxGraphModel dx="1050" dy="618" grid="0" gridSize="10" guides="1" tooltips="1" connect="1" arrows="1" fold="1" page="0" pageScale="1" pageWidth="827" pageHeight="1169" math="0" shadow="0">
      <root>
        <mxCell id="0" />
        <mxCell id="1" parent="0" />
        <mxCell id="hY9ZE6wi5_3v4BZrhCtW-1" value="API服务器" style="rounded=1;whiteSpace=wrap;html=1;verticalAlign=top;fillColor=#fff2cc;strokeColor=#d6b656;" vertex="1" parent="1">
          <mxGeometry y="34" width="897" height="192" as="geometry" />
        </mxCell>
        <mxCell id="hY9ZE6wi5_3v4BZrhCtW-2" value="节点A" style="rounded=1;whiteSpace=wrap;html=1;verticalAlign=top;fillColor=#ffe6cc;strokeColor=#d79b00;" vertex="1" parent="1">
          <mxGeometry x="43" y="244" width="330" height="358" as="geometry" />
        </mxCell>
        <mxCell id="hY9ZE6wi5_3v4BZrhCtW-4" value="节点B" style="rounded=1;whiteSpace=wrap;html=1;verticalAlign=top;fillColor=#ffe6cc;strokeColor=#d79b00;" vertex="1" parent="1">
          <mxGeometry x="501" y="244" width="213" height="358" as="geometry" />
        </mxCell>
        <mxCell id="hY9ZE6wi5_3v4BZrhCtW-15" value="" style="edgeStyle=orthogonalEdgeStyle;rounded=0;orthogonalLoop=1;jettySize=auto;html=1;" edge="1" parent="1" source="hY9ZE6wi5_3v4BZrhCtW-5" target="hY9ZE6wi5_3v4BZrhCtW-6">
          <mxGeometry relative="1" as="geometry" />
        </mxCell>
        <mxCell id="hY9ZE6wi5_3v4BZrhCtW-5" value="Service&lt;div&gt;172.30.0.1:80&lt;/div&gt;" style="rounded=1;whiteSpace=wrap;html=1;fillColor=#f8cecc;strokeColor=#b85450;" vertex="1" parent="1">
          <mxGeometry x="224" y="141" width="120" height="60" as="geometry" />
        </mxCell>
        <mxCell id="hY9ZE6wi5_3v4BZrhCtW-13" style="edgeStyle=orthogonalEdgeStyle;rounded=0;orthogonalLoop=1;jettySize=auto;html=1;entryX=1;entryY=1;entryDx=0;entryDy=0;" edge="1" parent="1" source="hY9ZE6wi5_3v4BZrhCtW-6" target="hY9ZE6wi5_3v4BZrhCtW-8">
          <mxGeometry relative="1" as="geometry">
            <Array as="points">
              <mxPoint x="564" y="176" />
              <mxPoint x="564" y="144" />
              <mxPoint x="582" y="144" />
            </Array>
          </mxGeometry>
        </mxCell>
        <mxCell id="hY9ZE6wi5_3v4BZrhCtW-14" style="edgeStyle=orthogonalEdgeStyle;rounded=0;orthogonalLoop=1;jettySize=auto;html=1;entryX=0.5;entryY=1;entryDx=0;entryDy=0;" edge="1" parent="1" source="hY9ZE6wi5_3v4BZrhCtW-6" target="hY9ZE6wi5_3v4BZrhCtW-9">
          <mxGeometry relative="1" as="geometry" />
        </mxCell>
        <mxCell id="hY9ZE6wi5_3v4BZrhCtW-6" value="Endpoint" style="rounded=1;whiteSpace=wrap;html=1;fillColor=#f8cecc;strokeColor=#b85450;" vertex="1" parent="1">
          <mxGeometry x="424" y="141" width="120" height="60" as="geometry" />
        </mxCell>
        <mxCell id="hY9ZE6wi5_3v4BZrhCtW-7" value="pod A" style="rounded=1;whiteSpace=wrap;html=1;fillColor=#f8cecc;strokeColor=#b85450;" vertex="1" parent="1">
          <mxGeometry x="253" y="61" width="120" height="60" as="geometry" />
        </mxCell>
        <mxCell id="hY9ZE6wi5_3v4BZrhCtW-8" value="pod B" style="rounded=1;whiteSpace=wrap;html=1;fillColor=#f8cecc;strokeColor=#b85450;" vertex="1" parent="1">
          <mxGeometry x="462" y="64" width="120" height="60" as="geometry" />
        </mxCell>
        <mxCell id="hY9ZE6wi5_3v4BZrhCtW-9" value="pod C" style="rounded=1;whiteSpace=wrap;html=1;fillColor=#f8cecc;strokeColor=#b85450;" vertex="1" parent="1">
          <mxGeometry x="657" y="64" width="120" height="60" as="geometry" />
        </mxCell>
        <mxCell id="hY9ZE6wi5_3v4BZrhCtW-17" style="edgeStyle=orthogonalEdgeStyle;rounded=0;orthogonalLoop=1;jettySize=auto;html=1;entryX=0.5;entryY=1;entryDx=0;entryDy=0;" edge="1" parent="1" source="hY9ZE6wi5_3v4BZrhCtW-16" target="hY9ZE6wi5_3v4BZrhCtW-6">
          <mxGeometry relative="1" as="geometry" />
        </mxCell>
        <mxCell id="hY9ZE6wi5_3v4BZrhCtW-18" style="edgeStyle=orthogonalEdgeStyle;rounded=0;orthogonalLoop=1;jettySize=auto;html=1;entryX=0.5;entryY=1;entryDx=0;entryDy=0;" edge="1" parent="1" source="hY9ZE6wi5_3v4BZrhCtW-16" target="hY9ZE6wi5_3v4BZrhCtW-5">
          <mxGeometry relative="1" as="geometry" />
        </mxCell>
        <mxCell id="hY9ZE6wi5_3v4BZrhCtW-23" style="edgeStyle=orthogonalEdgeStyle;rounded=0;orthogonalLoop=1;jettySize=auto;html=1;" edge="1" parent="1" source="hY9ZE6wi5_3v4BZrhCtW-16" target="hY9ZE6wi5_3v4BZrhCtW-21">
          <mxGeometry relative="1" as="geometry" />
        </mxCell>
        <mxCell id="hY9ZE6wi5_3v4BZrhCtW-16" value="kube-proxy" style="rounded=1;whiteSpace=wrap;html=1;fillColor=#fff2cc;strokeColor=#d6b656;" vertex="1" parent="1">
          <mxGeometry x="224" y="287" width="120" height="60" as="geometry" />
        </mxCell>
        <mxCell id="hY9ZE6wi5_3v4BZrhCtW-22" style="edgeStyle=orthogonalEdgeStyle;rounded=0;orthogonalLoop=1;jettySize=auto;html=1;" edge="1" parent="1" source="hY9ZE6wi5_3v4BZrhCtW-19" target="hY9ZE6wi5_3v4BZrhCtW-20">
          <mxGeometry relative="1" as="geometry" />
        </mxCell>
        <mxCell id="hY9ZE6wi5_3v4BZrhCtW-19" value="pod A&lt;div&gt;IP：10.1.1.1&lt;/div&gt;" style="rounded=1;whiteSpace=wrap;html=1;fillColor=#fff2cc;strokeColor=#d6b656;" vertex="1" parent="1">
          <mxGeometry x="64" y="287" width="120" height="60" as="geometry" />
        </mxCell>
        <mxCell id="hY9ZE6wi5_3v4BZrhCtW-24" style="edgeStyle=orthogonalEdgeStyle;rounded=0;orthogonalLoop=1;jettySize=auto;html=1;exitX=1;exitY=0.5;exitDx=0;exitDy=0;entryX=0;entryY=0.5;entryDx=0;entryDy=0;" edge="1" parent="1" source="hY9ZE6wi5_3v4BZrhCtW-20" target="hY9ZE6wi5_3v4BZrhCtW-21">
          <mxGeometry relative="1" as="geometry" />
        </mxCell>
        <mxCell id="hY9ZE6wi5_3v4BZrhCtW-20" value="资源：&lt;div&gt;10.1.1.1&lt;/div&gt;&lt;div&gt;Destination：&lt;/div&gt;&lt;div&gt;172.30.0.1:80&lt;/div&gt;" style="rounded=0;whiteSpace=wrap;html=1;fillColor=#fff2cc;strokeColor=#d6b656;" vertex="1" parent="1">
          <mxGeometry x="64" y="400" width="120" height="155" as="geometry" />
        </mxCell>
        <mxCell id="hY9ZE6wi5_3v4BZrhCtW-27" style="edgeStyle=orthogonalEdgeStyle;rounded=0;orthogonalLoop=1;jettySize=auto;html=1;exitX=1;exitY=0.5;exitDx=0;exitDy=0;entryX=0;entryY=0.5;entryDx=0;entryDy=0;" edge="1" parent="1" source="hY9ZE6wi5_3v4BZrhCtW-21" target="hY9ZE6wi5_3v4BZrhCtW-25">
          <mxGeometry relative="1" as="geometry" />
        </mxCell>
        <mxCell id="hY9ZE6wi5_3v4BZrhCtW-21" value="iptables" style="rounded=0;whiteSpace=wrap;html=1;fillColor=#fff2cc;strokeColor=#d6b656;" vertex="1" parent="1">
          <mxGeometry x="224" y="400" width="120" height="155" as="geometry" />
        </mxCell>
        <mxCell id="hY9ZE6wi5_3v4BZrhCtW-28" style="edgeStyle=orthogonalEdgeStyle;rounded=0;orthogonalLoop=1;jettySize=auto;html=1;exitX=1;exitY=0.5;exitDx=0;exitDy=0;entryX=0.5;entryY=1;entryDx=0;entryDy=0;" edge="1" parent="1" source="hY9ZE6wi5_3v4BZrhCtW-25" target="hY9ZE6wi5_3v4BZrhCtW-26">
          <mxGeometry relative="1" as="geometry" />
        </mxCell>
        <mxCell id="hY9ZE6wi5_3v4BZrhCtW-25" value="资源：&lt;div&gt;10.1.1.1&lt;/div&gt;&lt;div&gt;Destination：&lt;/div&gt;&lt;div&gt;&lt;strike&gt;172.30.0.1:80&lt;/strike&gt;&lt;/div&gt;&lt;div&gt;10.1.2.1:8080&lt;/div&gt;" style="rounded=1;whiteSpace=wrap;html=1;fillColor=#fff2cc;strokeColor=#d6b656;" vertex="1" parent="1">
          <mxGeometry x="400" y="396.5" width="80" height="162" as="geometry" />
        </mxCell>
        <mxCell id="hY9ZE6wi5_3v4BZrhCtW-26" value="pod B&lt;div&gt;IP：10.1.2.1&lt;/div&gt;" style="rounded=1;whiteSpace=wrap;html=1;fillColor=#fff2cc;strokeColor=#d6b656;" vertex="1" parent="1">
          <mxGeometry x="547.5" y="285" width="120" height="60" as="geometry" />
        </mxCell>
      </root>
    </mxGraphModel>
  </diagram>
</mxfile>
